<?xml version="1.0" encoding="UTF-8" standalone="no"?>
<!-- Created with Inkscape (http://www.inkscape.org/) -->

<svg
   xmlns:dc="http://purl.org/dc/elements/1.1/"
   xmlns:cc="http://creativecommons.org/ns#"
   xmlns:rdf="http://www.w3.org/1999/02/22-rdf-syntax-ns#"
   xmlns:svg="http://www.w3.org/2000/svg"
   xmlns="http://www.w3.org/2000/svg"
   xmlns:sodipodi="http://sodipodi.sourceforge.net/DTD/sodipodi-0.dtd"
   xmlns:inkscape="http://www.inkscape.org/namespaces/inkscape"
   width="210mm"
   height="297mm"
   viewBox="0 0 744.09448819 1052.3622047"
   id="svg4271"
   version="1.1"
   inkscape:version="0.91 r"
   sodipodi:docname="image-set.svg">
  <defs
     id="defs4273" />
  <sodipodi:namedview
     id="base"
     pagecolor="#ffffff"
     bordercolor="#666666"
     borderopacity="1.0"
     inkscape:pageopacity="0.0"
     inkscape:pageshadow="2"
     inkscape:zoom="0.7"
     inkscape:cx="165.37333"
     inkscape:cy="777.33746"
     inkscape:document-units="px"
     inkscape:current-layer="layer1"
     showgrid="false"
     inkscape:window-width="1317"
     inkscape:window-height="744"
     inkscape:window-x="49"
     inkscape:window-y="24"
     inkscape:window-maximized="1" />
  <metadata
     id="metadata4276">
    <rdf:RDF>
      <cc:Work
         rdf:about="">
        <dc:format>image/svg+xml</dc:format>
        <dc:type
           rdf:resource="http://purl.org/dc/dcmitype/StillImage" />
        <dc:title />
      </cc:Work>
    </rdf:RDF>
  </metadata>
  <g
     inkscape:label="Layer 1"
     inkscape:groupmode="layer"
     id="layer1">
    <g
       id="g4881"
       inkscape:export-xdpi="90"
       inkscape:export-ydpi="90">
      <rect
         ry="3.6063693"
         y="240.89555"
         x="144.86629"
         height="460.07617"
         width="440.07614"
         id="rect4879"
         style="opacity:1;fill:#ececec;fill-opacity:1;stroke:#50210b;stroke-width:0.42385069;stroke-linecap:round;stroke-linejoin:round;stroke-miterlimit:4;stroke-dasharray:none;stroke-opacity:1" />
      <g
         style="fill:#666666"
         transform="matrix(4.556231,0,0,4.556231,150.7615,291.12286)"
         id="g4860">
        <g
           style="fill:#666666"
           id="g4820">
          <path
             style="fill:#666666"
             inkscape:connector-curvature="0"
             d="M 73.602,67.24 C 61.276,62.747 57.336,58.958 57.336,50.845 c 0,-4.871 3.764,-3.28 5.416,-12.2 0.686,-3.7 4.01,-0.06 4.646,-8.507 0,-3.367 -1.814,-4.203 -1.814,-4.203 0,0 0.922,-4.982 1.283,-8.816 C 67.314,12.342 64.107,0 47,0 29.893,0 26.684,12.342 27.133,17.119 c 0.361,3.834 1.283,8.816 1.283,8.816 0,0 -1.814,0.836 -1.814,4.203 0.635,8.447 3.959,4.807 4.645,8.507 1.654,8.919 5.416,7.329 5.416,12.2 0,8.113 -3.938,11.902 -16.264,16.395 C 8.033,71.746 0,76.339 0,79.473 0,82.604 0,90 0,90 l 47,0 47,0 c 0,0 0,-7.396 0,-10.527 0,-3.134 -8.033,-7.727 -20.398,-12.233 z"
             id="path4822" />
        </g>
        <g
           style="fill:#666666"
           id="g4824" />
        <g
           style="fill:#666666"
           id="g4826" />
        <g
           style="fill:#666666"
           id="g4828" />
        <g
           style="fill:#666666"
           id="g4830" />
        <g
           style="fill:#666666"
           id="g4832" />
        <g
           style="fill:#666666"
           id="g4834" />
        <g
           style="fill:#666666"
           id="g4836" />
        <g
           style="fill:#666666"
           id="g4838" />
        <g
           style="fill:#666666"
           id="g4840" />
        <g
           style="fill:#666666"
           id="g4842" />
        <g
           style="fill:#666666"
           id="g4844" />
        <g
           style="fill:#666666"
           id="g4846" />
        <g
           style="fill:#666666"
           id="g4848" />
        <g
           style="fill:#666666"
           id="g4850" />
        <g
           style="fill:#666666"
           id="g4852" />
      </g>
    </g>
    <rect
       style="opacity:1;fill:#3872c1;fill-opacity:1;stroke:#50210b;stroke-width:0.03280225;stroke-linecap:round;stroke-linejoin:round;stroke-miterlimit:4;stroke-dasharray:none;stroke-opacity:1"
       id="rect5354"
       width="4.9671979"
       height="4.9671979"
       x="358.33786"
       y="186.20004"
       ry="0"
       inkscape:export-xdpi="90"
       inkscape:export-ydpi="90" />
    <path
       id="path9955"
       d="m 430.96571,58.07649 15.8334,15.8333 -10.6875,0 -16.625,-15.8333 16.625,-15.8333 10.6875,0 -15.8334,15.8333 z"
       inkscape:connector-curvature="0"
       style="fill:#235190;fill-opacity:1;stroke-width:0.2;stroke-linejoin:round"
       inkscape:export-xdpi="90"
       inkscape:export-ydpi="90" />
    <path
       style="fill:#235190;fill-opacity:1;stroke-width:0.2;stroke-linejoin:round"
       inkscape:connector-curvature="0"
       d="m 483.32001,58.07649 -15.8334,15.8333 10.6875,0 16.625,-15.8333 -16.625,-15.8333 -10.6875,0 15.8334,15.8333 z"
       id="path9964"
       inkscape:export-xdpi="90"
       inkscape:export-ydpi="90" />
  </g>
</svg>
